<?xml version="1.0" encoding="utf-8"?>
<!-- Generator: Adobe Illustrator 28.2.0, SVG Export Plug-In . SVG Version: 6.00 Build 0)  -->
<svg version="1.1" id="Capa_1" xmlns="http://www.w3.org/2000/svg" xmlns:xlink="http://www.w3.org/1999/xlink" x="0px" y="0px"
	 viewBox="0 0 407.1 85.4" style="enable-background:new 0 0 407.1 85.4;" xml:space="preserve">
<style type="text/css">
	.st0{fill:#153F6C;}
</style>
<g>
	<g>
		<path class="st0" d="M37.4,77l-1-3.4l2.7-2.1h-3.3l-1.1-3.4l-1.1,3.4h-3.4l2.8,2.1L31.9,77l2.8-2.2L37.4,77z M48.3,65.1
			c-1.7,0.8-3.4,1.3-5.2,1.3c-1.5,0-2.9-0.3-4.3-0.9c-0.4-0.2-0.8-0.4-1.2-0.6l8,10.7l0.5-0.6c2.2-2.4,4.1-5.1,5.3-8.3
			c0.3-0.8,0.5-1.4,0.8-2.1c-0.5-0.2-0.9-0.2-1.4-0.2C50,64.4,49.1,64.7,48.3,65.1 M53.3,58.7c0.1-0.7,0.1-1.4,0.1-2v-3
			c-0.2-0.2-0.4-0.2-0.5-0.3c-0.5-0.3-1.2-0.5-2.1-0.5c-1.1,0-1.9,0.2-2.6,0.6c-1.9,1-3.6,1.4-5.2,1.4c-1.5,0-2.9-0.3-4.3-1
			c0,1.3-0.2,1.9-0.6,3c0.1,0.6,0.6,1.2,1.1,1.9h0c0.5,0.5,1.1,0.8,1.6,1.1c0.6,0.2,1.3,0.4,2.1,0.4c0.9,0,1.7-0.2,2.5-0.6
			c1.8-0.9,3.6-1.4,5.3-1.4C51.7,58.4,52.5,58.5,53.3,58.7 M22,74.8l2.7,2.2l-1-3.4l2.7-2.1H23L22,68.1l-1.1,3.4h-3.4l2.8,2.1
			L19.2,77L22,74.8z M8.5,65.1c-1-0.5-1.9-0.7-2.7-0.7c-0.4,0-0.8,0-1.2,0.2c0.2,0.7,0.5,1.4,0.8,2.2c1.3,3.3,3.1,6,5.3,8.3
			c0.2,0.2,0.3,0.3,0.5,0.5l7.9-10.7c-0.4,0.2-0.8,0.5-1.2,0.7c-1.4,0.6-2.9,0.9-4.4,0.9C11.7,66.4,10,65.9,8.5,65.1 M18.5,56.9
			c-0.5-1-0.7-2.2-0.8-3.5c-1.3,0.6-2.7,1.5-4.3,1.5c-1.8,0-3.4-0.5-5-1.4c-0.7-0.4-1.5-0.6-2.7-0.6c-0.9,0-1.5,0.2-2,0.5l-0.4,0.2
			v3.1c0,0.6,0,1.3,0.1,1.9c0.8-0.2,1.5-0.2,2.3-0.2c1.9,0,3.6,0.4,5.3,1.4c0.8,0.4,1.6,0.6,2.4,0.6c0.8,0,1.6-0.2,2.1-0.4
			c0.7-0.3,1.2-0.7,1.7-1.2l0.6-0.8c0.3-0.4,0.5-0.6,0.5-0.9L18.5,56.9z M19,54c0.1,0.9,0.4,1.8,0.8,2.8c0.5,1.2,1.1,2.2,1.9,3.1
			c0.5,0.3,0.9,0.7,1.4,1c0.1,0.1,0.2,0.2,0.4,0.2c0.4,0.3,0.8,0.6,1.2,0.7c0.9,0.4,2.2,0.6,3.6,0.7c1.5-0.1,2.6-0.3,3.6-0.7
			c0.4-0.2,0.8-0.4,1.2-0.7c0.4-0.2,0.8-0.5,1.2-0.8c0.2-0.2,0.4-0.3,0.5-0.5c0.8-0.9,1.5-1.9,2-3.1c0.1-0.1,0.1-0.2,0.2-0.3
			c0.3-0.7,0.5-1.3,0.6-2.4V40.7H18.9V53C18.9,53.3,19,53.7,19,54 M3.4,47.1c0.7-0.2,1.5-0.2,2.4-0.2c2,0,3.7,0.4,5.3,1.3
			c0.7,0.5,1.5,0.7,2.4,0.7c0.6,0,1.4-0.2,2.1-0.5c0.6-0.3,1.2-0.7,1.7-1.1l0.5-0.5v-5c-1.3,0.6-2.7,1-4.3,1c-1.8,0-3.4-0.6-5-1.4
			c-0.7-0.4-1.6-0.6-2.7-0.6c-0.9,0-1.5,0.2-2,0.5l-0.4,0.3C3.4,41.5,3.4,47.1,3.4,47.1 M3.4,20.9v14c0.7-0.2,1.5-0.2,2.4-0.2
			c2,0,3.7,0.5,5.3,1.4c0.8,0.4,1.5,0.6,2.4,0.6c0.6,0,1.2-0.1,1.9-0.4L3.4,20.9z M39.4,47.3c0.4,0.4,0.9,0.8,1.5,1.1l0.1,0.1
			c0.5,0.2,0.7,0.3,1,0.3c0.3,0,0.7,0.1,1,0.1c0.9,0,1.7-0.2,2.5-0.7c1.6-0.9,3.4-1.3,5.3-1.3c0.8,0,1.6,0.1,2.5,0.3v-5.8
			c-0.1-0.1-0.3-0.2-0.5-0.3c-0.5-0.3-1.2-0.5-2.1-0.5c-1.1,0-1.9,0.2-2.6,0.6c-1.9,0.9-3.6,1.4-5.2,1.4c-1.5,0-2.9-0.4-4.3-1v5
			C39,46.9,39.4,47.3,39.4,47.3 M42.1,36.6c0.3,0.1,0.7,0.1,1,0.1c0.9,0,1.7-0.2,2.5-0.6c1.6-0.9,3.4-1.4,5.3-1.4
			c0.8,0,1.6,0.1,2.5,0.3V20.9C53.4,20.9,41.9,36.5,42.1,36.6 M29.3,6.3h-1.7c-0.4-1-0.9-1.8-1.6-2.4c-0.8-0.6-1.8-1-2.8-1H10v16.5
			h13.2c0.9,0,1.9,0.2,2.7,0.6c0.5,0.2,1,0.6,1.5,1c0.5,0.7,0.9,1.2,1,1.5c0.2-0.3,0.5-0.8,1-1.5c0.5-0.4,0.9-0.8,1.5-1
			c0.9-0.5,1.7-0.6,2.7-0.6h13V3h-13c-1.1,0-2,0.3-2.7,1C30,4.6,29.5,5.4,29.3,6.3 M30.1,2.8C31,2,32.2,1.5,33.6,1.5h13.7
			c0.2,0,0.3,0.1,0.5,0.2c0.2,0.1,0.2,0.2,0.2,0.2v0.2v17.3h5.8l0.4,0.1c0.2,0,0.2,0.1,0.3,0.2c0.2,0.2,0.3,0.6,0.3,0.8v36.1
			c0,3.6-0.7,7.1-2,10.6c-1.5,3.4-3.3,6.2-5.6,8.6c-2.5,2.5-5.3,4.5-8.4,5.8c-3.2,1.4-6.6,2.2-10.4,2.2c-3.6,0-7-0.7-10.2-2.2
			c-3.3-1.4-6-3.4-8.4-5.8c-2.4-2.4-4.3-5.3-5.7-8.6c-1.3-3.6-2-7.1-2-10.6V20.6c0-0.2,0.1-0.6,0.2-0.8c0.2-0.2,0.4-0.2,0.6-0.2h5.9
			V2.2V2c0-0.1,0.1-0.2,0.2-0.2C9,1.6,9.2,1.5,9.3,1.5h13.8c1.3,0,2.5,0.5,3.6,1.3C27.4,3.4,28,4,28.4,4.7C28.8,4,29.4,3.4,30.1,2.8
			 M18.2,29.7l0.7,6.9h0.5l0.8-6.9v-1h-1.9V29.7z M17.7,26.6c0.1,0.2,0.1,0.4,0.1,0.4c0.1,0.6,0.7,1.1,1.4,1.1
			c0.8,0,1.5-0.7,1.5-1.5c0-0.4-0.1-0.7-0.4-1c0,0.2,0,0.3,0,0.4c-0.2,0.5-0.5,0.4-0.6,0.3l0.2-0.2c0.2-0.4-0.2-1-0.3-1.1
			c-0.5-0.5-0.4-0.8-0.4-1.2c-0.6,0.6-0.8,1.1-0.9,1.5c-0.2,0.6,0,1.2,0.6,1.8C18.3,27,17.9,26.8,17.7,26.6 M23.8,26.6
			c0.1,0.2,0.1,0.4,0.1,0.4c0.1,0.6,0.7,1.1,1.4,1.1c0.8,0,1.5-0.7,1.5-1.5c0-0.4-0.1-0.7-0.4-1c0,0.2,0,0.3,0,0.4
			c-0.2,0.5-0.5,0.4-0.6,0.3l0.2-0.2c0.2-0.4-0.2-1-0.3-1.1c-0.5-0.5-0.4-0.8-0.4-1.2c-0.5,0.6-0.8,1.1-0.9,1.5
			c-0.2,0.6,0,1.2,0.6,1.8C24.3,27,23.9,26.8,23.8,26.6 M24.3,29.7l0.7,6.9h0.5l0.8-6.9v-1h-1.9V29.7z M30.4,29.7l0.7,6.9h0.5
			l0.8-6.9v-1h-1.9V29.7z M29.8,26.6c0.1,0.2,0.1,0.4,0.1,0.4c0.1,0.6,0.7,1.1,1.4,1.1c0.8,0,1.5-0.7,1.5-1.5c0-0.4-0.1-0.7-0.4-1
			c0,0.2,0,0.3,0,0.4c-0.2,0.5-0.5,0.4-0.6,0.3l0.2-0.2c0.2-0.4-0.2-1-0.3-1.1c-0.5-0.5-0.4-0.8-0.4-1.2c-0.5,0.6-0.8,1.1-0.9,1.5
			c-0.2,0.6,0,1.2,0.6,1.8C30.4,27,30,26.8,29.8,26.6 M35.9,26.6C36,26.8,36,27,36,27c0.1,0.6,0.7,1.1,1.4,1.1
			c0.8,0,1.5-0.7,1.5-1.5c0-0.4-0.1-0.7-0.4-1c0,0.2,0,0.3,0,0.4c-0.2,0.5-0.5,0.4-0.6,0.3l0.2-0.2c0.2-0.4-0.2-1-0.3-1.1
			c-0.5-0.5-0.4-0.8-0.4-1.2c-0.5,0.6-0.8,1.1-0.9,1.5c-0.2,0.6,0,1.2,0.6,1.8C36.4,27,36.1,26.8,35.9,26.6 M36.4,29.7l0.7,6.9h0.5
			l0.8-6.9v-1h-1.9V29.7z"/>
		<path class="st0" d="M34.3,8.3C33.4,9,33,9.8,33,10.7c0,0.9,0.4,1.7,1.2,2.3c0.5,0.3,1,0.6,1.5,0.8v3.3h-3.6v-1.1h3.1v-1
			c-0.7-0.2-1.4-0.6-1.9-1c-1.1-1-1.6-2.1-1.6-3.4c0-1.3,0.5-2.4,1.6-3.4c1.1-0.9,2.3-1.4,3.8-1.4c1.5,0,2.8,0.5,3.8,1.4
			c1.2,1,1.7,2.1,1.7,3.4c0.1,1.3-0.5,2.4-1.7,3.4c-0.5,0.4-1.1,0.7-1.9,1v1h3.1v1.1h-3.6v-3.4c0.5-0.1,1-0.3,1.7-0.7
			c0.8-0.6,1.1-1.4,1.1-2.3c0-0.9-0.4-1.6-1.1-2.3c-0.8-0.6-1.9-1-3.1-1C36,7.3,35,7.7,34.3,8.3"/>
	</g>
	<path class="st0" d="M21.7,12.1l-2.1-4.3l-2.2,4.3H21.7z M24.3,17.2l-1.9-3.9h-5.6l-1.9,3.9h-1.4l6-11.8h0.3l5.9,11.8H24.3z"/>
	<g>
		<path class="st0" d="M27.7,48.8v-3.1h0.6H29v3.1c0.2,0,0.5,0.1,0.7,0.2l1.6-2.7c0.4,0.2,0.8,0.4,1.1,0.7l-1.5,2.6
			c0.1,0.1,0.2,0.2,0.3,0.2c0.1,0.1,0.2,0.2,0.2,0.3l2.6-1.6c0.2,0.4,0.5,0.8,0.6,1.2L32,51.4c0.1,0.2,0.1,0.5,0.2,0.7h3v1.3h-3
			c-0.1,0.2-0.1,0.5-0.2,0.7l2.6,1.6c-0.2,0.4-0.4,0.8-0.6,1.2l-2.6-1.6c-0.1,0.2-0.1,0.2-0.2,0.3c-0.2,0.1-0.2,0.2-0.3,0.2l1.5,2.6
			c-0.3,0.3-0.7,0.5-1.1,0.7l-1.6-2.6c-0.2,0.1-0.5,0.2-0.7,0.2v3l-0.7,0.1l-0.6-0.1v-3c-0.2,0-0.5-0.1-0.7-0.2l-1.5,2.6
			c-0.4-0.2-0.8-0.4-1.1-0.7l1.5-2.6c-0.1-0.2-0.2-0.2-0.3-0.3c-0.1-0.1-0.1-0.2-0.1-0.2l-2.6,1.4c-0.2-0.3-0.5-0.7-0.6-1.1l2.6-1.5
			c-0.2-0.2-0.2-0.5-0.2-0.8h-3v-1.3h3c0.1-0.2,0.1-0.5,0.1-0.7l-2.5-1.5c0.2-0.4,0.4-0.8,0.6-1.2l2.6,1.6c0.1-0.2,0.2-0.2,0.2-0.3
			c0.2-0.1,0.2-0.2,0.4-0.3L24.4,47c0.3-0.3,0.7-0.6,1.1-0.7L27,49C27.2,48.9,27.4,48.8,27.7,48.8"/>
		<g>
			<path class="st0" d="M74.6,24.5c0,1.9-0.1,4.4-0.1,7.5h1.3c1.6,0,3.3,0,4.9-0.2v3.9c-1.6-0.2-3.3-0.2-4.9-0.2h-1.3
				c0,5.6,0.1,9.1,0.2,10.4h-4.5c0.2-1.5,0.3-5.7,0.3-12.6c0-6.9-0.1-11.1-0.3-12.6h12v4c-1.6-0.2-3.3-0.2-4.9-0.2H74.6z"/>
		</g>
		<g>
			<path class="st0" d="M92.1,38.9h-5.6c-0.8,4-1.2,6-1.3,7.1h-4.2c0.4-1.5,1.5-5.7,3.1-12.6c1.6-6.9,2.4-11.1,2.6-12.6h5.6
				c0.1,1.5,1.1,5.7,2.6,12.6c1.5,6.9,2.8,11.1,3.2,12.6h-4.5C93.3,44.9,92.9,42.9,92.1,38.9z M91.4,35.2l-0.1-0.6l-1.7-8.3h-0.5
				l-1.8,8.3c0,0.2-0.1,0.4-0.1,0.6H91.4z"/>
			<path class="st0" d="M99.1,33.4c0-9.5,2.3-12.9,7.2-12.9c4,0,6.2,2.5,6.5,7.2l-3.6,1.2c-0.2-3.2-1-4.9-2.8-4.9
				c-2,0-3.1,2.3-3.1,9.5c0,7.1,1.1,9.5,3.1,9.5c1.6,0,2.8-0.9,3-5.3l3.6,1.7c-0.6,4.9-2.6,7-6.8,7C101.3,46.4,99.1,42.9,99.1,33.4z
				"/>
			<path class="st0" d="M116,38.7c0-12.9-0.1-16.2-0.3-17.9h4.7c-0.2,1.4-0.2,5.5-0.2,17.4c0,3.2,1,4.5,3,4.5c2,0,3-1.3,3-4.5
				c0-11.7-0.1-15.8-0.3-17.4h4.7c-0.2,1.4-0.2,4.7-0.2,17.9c0,4.6-2.3,7.7-7.1,7.7C118.2,46.4,116,43.3,116,38.7z"/>
		</g>
		<g>
			<path class="st0" d="M146.5,42v4h-11.9c0.2-1.5,0.3-5.7,0.3-12.6c0-6.9-0.1-11.1-0.3-12.6h4.7c-0.2,1.5-0.2,5.7-0.2,12.6v8.8h2.6
				C143.2,42.2,144.9,42.2,146.5,42z"/>
			<path class="st0" d="M162.1,24.6c-1.6-0.2-3.3-0.2-4.9-0.2h-0.5V41c0,1.9,0.1,3.5,0.3,5.1h-4.7c0.2-1.5,0.3-3.2,0.3-5.1V24.3
				h-0.5c-1.6,0-3.3,0.1-4.9,0.2v-3.8h14.9V24.6z"/>
		</g>
		<g>
			<path class="st0" d="M170.3,38.9h-5.6c-0.8,4-1.2,6-1.3,7.1h-4.2c0.4-1.5,1.5-5.7,3.1-12.6c1.6-6.9,2.4-11.1,2.6-12.6h5.6
				c0.1,1.5,1.1,5.7,2.6,12.6c1.5,6.9,2.8,11.1,3.2,12.6h-4.5C171.5,44.9,171,42.9,170.3,38.9z M169.5,35.2l-0.1-0.6l-1.7-8.3h-0.5
				l-1.8,8.3c0,0.2-0.1,0.4-0.1,0.6H169.5z"/>
			<path class="st0" d="M192.6,33.4c0,9.3-1.7,12.6-7.9,12.6h-6.5c0.2-1.5,0.3-5.8,0.3-12.6c0-6.8-0.1-11.1-0.3-12.6h6.5
				C190.9,20.8,192.6,24.1,192.6,33.4z M188.5,33.4c0-6.9-0.5-9.3-3.9-9.3h-2.1v18.6h2.1C188,42.7,188.5,40.4,188.5,33.4z"/>
			<path class="st0" d="M217.9,33.4c0,9.3-1.7,12.6-7.9,12.6h-6.5c0.2-1.5,0.3-5.8,0.3-12.6c0-6.8-0.1-11.1-0.3-12.6h6.5
				C216.2,20.8,217.9,24.1,217.9,33.4z M213.8,33.4c0-6.9-0.5-9.3-3.9-9.3h-2.1v18.6h2.1C213.3,42.7,213.8,40.4,213.8,33.4z"/>
		</g>
		<g>
			<path class="st0" d="M233.7,42v4h-12.5c0.2-1.5,0.3-5.7,0.3-12.6c0-6.9-0.1-11.1-0.3-12.6h12.1v4c-1.6-0.2-3.3-0.2-4.9-0.2h-2.7
				v6.6h1.9c1.6,0,3.3,0,4.9-0.2v4c-1.6-0.2-3.3-0.2-4.9-0.2h-1.9v7.3h3C230.4,42.2,232,42.2,233.7,42z"/>
		</g>
		<g>
			<path class="st0" d="M69.1,66.1c0-9.5,2.3-12.9,7.2-12.9c4,0,6.2,2.5,6.5,7.2l-3.6,1.2c-0.2-3.2-1-4.9-2.8-4.9
				c-2,0-3.1,2.3-3.1,9.5c0,7.1,1.1,9.5,3.1,9.5c1.6,0,2.8-0.9,3-5.3l3.6,1.7c-0.6,4.9-2.6,7-6.8,7C71.3,79,69.1,75.5,69.1,66.1z"/>
			<path class="st0" d="M86.1,69v-5.8c0-4.8-0.1-8.2-0.3-9.8h4.7c-0.2,1.6-0.2,8.4-0.2,9.8V69c0,1.4,0.1,8.1,0.2,9.7h-4.7
				C86,77.1,86.1,73.8,86.1,69z"/>
			<path class="st0" d="M107.3,74.7v4H94.8c0.2-1.5,0.3-5.7,0.3-12.6c0-6.9-0.1-11.1-0.3-12.6h12.1v4c-1.6-0.2-3.3-0.2-4.9-0.2h-2.7
				v6.6h1.9c1.6,0,3.3,0,4.9-0.2v4c-1.6-0.2-3.3-0.2-4.9-0.2h-1.9v7.3h3C104,74.8,105.6,74.8,107.3,74.7z"/>
			<path class="st0" d="M111.1,66.1c0-6.9-0.1-11.1-0.3-12.6h3.7l6.7,16.1h0.1v-3.5c0-7.1-0.1-11.2-0.3-12.7h4.1
				c-0.1,1.5-0.2,5.7-0.2,12.6c0,6.9,0.1,11.1,0.2,12.6h-3.5l-6.8-16.4h-0.1V66c0,7.1,0.1,11.2,0.2,12.7h-4.1
				C110.9,77.1,111.1,72.9,111.1,66.1z"/>
			<path class="st0" d="M128.3,66.1c0-9.5,2.3-12.9,7.2-12.9c4,0,6.2,2.5,6.5,7.2l-3.6,1.2c-0.2-3.2-1-4.9-2.8-4.9
				c-2,0-3.1,2.3-3.1,9.5c0,7.1,1.1,9.5,3.1,9.5c1.6,0,2.8-0.9,3-5.3l3.6,1.7c-0.6,4.9-2.6,7-6.8,7C130.5,79,128.3,75.5,128.3,66.1z
				"/>
			<path class="st0" d="M145.4,69v-5.8c0-4.8-0.1-8.2-0.3-9.8h4.7c-0.2,1.6-0.2,8.4-0.2,9.8V69c0,1.4,0.1,8.1,0.2,9.7h-4.7
				C145.3,77.1,145.4,73.8,145.4,69z"/>
			<path class="st0" d="M163.1,71.5h-5.6c-0.8,4-1.2,6-1.3,7.1h-4.2c0.4-1.5,1.5-5.7,3.1-12.6c1.6-6.9,2.4-11.1,2.6-12.6h5.6
				c0.1,1.5,1.1,5.7,2.6,12.6c1.5,6.9,2.8,11.1,3.2,12.6h-4.5C164.3,77.5,163.9,75.5,163.1,71.5z M162.4,67.9l-0.1-0.6l-1.7-8.3
				h-0.5l-1.8,8.3c0,0.2-0.1,0.4-0.1,0.6H162.4z"/>
			<path class="st0" d="M176.7,75.7c1.6,0,2.5-1.1,2.5-3.3c0-1.9-1.2-2.6-2.8-3.9l-2.2-1.8c-2.2-1.7-3.7-3.6-3.7-6.7
				c0-4.4,2.4-6.9,6.6-6.9c4,0,6.3,2.4,6.5,5.8l-3.7,1.2c-0.2-1.9-1-3.4-2.8-3.4c-1.6,0-2.4,1.1-2.4,2.8c0,1.4,0.5,2.2,2.9,4.2
				l2.4,1.9c2.1,1.7,3.4,3.4,3.4,6.5c0,4.2-2.3,6.9-6.6,6.9c-4.3,0-6.2-2.1-6.9-5.7l3.6-1.8C173.7,74.4,174.9,75.7,176.7,75.7z"/>
			<path class="st0" d="M206.9,74.7v4h-12.5c0.2-1.5,0.3-5.7,0.3-12.6c0-6.9-0.1-11.1-0.3-12.6h12.1v4c-1.6-0.2-3.3-0.2-4.9-0.2H199
				v6.6h1.9c1.6,0,3.3,0,4.9-0.2v4c-1.6-0.2-3.3-0.2-4.9-0.2H199v7.3h3C203.7,74.8,205.3,74.8,206.9,74.7z"/>
			<path class="st0" d="M210.7,68.6v-4.8c0-6.1,0-8.8,0-10.3h5.2l3.7,18.3h0.1l3.9-18.3h5c0,1.5,0,4.6,0,10.3v4.8
				c0,5.4,0.1,8.6,0.2,10.1h-4.1c0.1-1.5,0.2-4.2,0.2-9.8v-7.7h-0.1l-4.1,17.5h-2.6l-4.1-17.5h-0.1v7.7c0,5.5,0.1,8.2,0.2,9.8h-3.8
				C210.6,77.1,210.7,74,210.7,68.6z"/>
			<path class="st0" d="M246.9,61.7c0,5.6-2.1,8.5-6.6,8.5h-2.8c0,4.2,0.1,7.4,0.2,8.5h-4.5c0.2-1.5,0.3-5.7,0.3-12.6
				c0-6.9-0.1-11.1-0.3-12.6h7.2C244.1,53.5,246.9,55.3,246.9,61.7z M242.9,62c0-3.5-1.3-4.8-3.4-4.8h-2.1v8.9v0.6h2.1
				C241.9,66.7,242.9,65,242.9,62z"/>
			<path class="st0" d="M265.2,78.7h-4.8l-1-7.3c-0.3-1.9-0.8-2.7-2.6-2.7h-2.2c0,5.3,0.1,8.7,0.3,10h-4.7c0.2-1.5,0.3-5.8,0.3-12.6
				c0-6.8-0.1-11.1-0.3-12.6h7.7c4.9,0,6.9,2.4,6.9,7c0,3-0.9,5.5-3.2,6.2c-0.2,0.1-0.2,0.1-0.2,0.2c0,0.1,0.1,0.2,0.2,0.2
				c0.7,0.4,1.8,0.8,2.1,2.8L265.2,78.7z M260.5,61.2c0-3.6-1.2-4-3.6-4h-2.3c0,2.1-0.1,4.8-0.1,8h2.3
				C259.3,65.3,260.5,64.3,260.5,61.2z"/>
			<path class="st0" d="M281.1,74.7v4h-12.5c0.2-1.5,0.3-5.7,0.3-12.6c0-6.9-0.1-11.1-0.3-12.6h12.1v4c-1.6-0.2-3.3-0.2-4.9-0.2
				h-2.7v6.6h1.9c1.6,0,3.3,0,4.9-0.2v4c-1.6-0.2-3.3-0.2-4.9-0.2h-1.9v7.3h3C277.9,74.8,279.5,74.8,281.1,74.7z"/>
			<path class="st0" d="M290.3,75.7c1.6,0,2.5-1.1,2.5-3.3c0-1.9-1.2-2.6-2.8-3.9l-2.2-1.8c-2.2-1.7-3.7-3.6-3.7-6.7
				c0-4.4,2.4-6.9,6.6-6.9c4,0,6.3,2.4,6.5,5.8l-3.7,1.2c-0.2-1.9-1-3.4-2.8-3.4c-1.6,0-2.4,1.1-2.4,2.8c0,1.4,0.5,2.2,2.9,4.2
				l2.4,1.9c2.1,1.7,3.4,3.4,3.4,6.5c0,4.2-2.3,6.9-6.6,6.9c-4.3,0-6.2-2.1-6.9-5.7l3.6-1.8C287.3,74.4,288.5,75.7,290.3,75.7z"/>
			<path class="st0" d="M309.6,71.5h-5.6c-0.8,4-1.2,6-1.3,7.1h-4.2c0.4-1.5,1.5-5.7,3.1-12.6c1.6-6.9,2.4-11.1,2.6-12.6h5.6
				c0.1,1.5,1.1,5.7,2.6,12.6c1.5,6.9,2.8,11.1,3.2,12.6h-4.5C310.8,77.5,310.4,75.5,309.6,71.5z M308.8,67.9l-0.1-0.6L307,59h-0.5
				l-1.8,8.3c0,0.2-0.1,0.4-0.1,0.6H308.8z"/>
			<path class="st0" d="M332.6,78.7h-4.8l-1-7.3c-0.3-1.9-0.8-2.7-2.6-2.7H322c0,5.3,0.1,8.7,0.3,10h-4.7c0.2-1.5,0.3-5.8,0.3-12.6
				c0-6.8-0.1-11.1-0.3-12.6h7.7c4.9,0,6.9,2.4,6.9,7c0,3-0.9,5.5-3.2,6.2c-0.2,0.1-0.2,0.1-0.2,0.2c0,0.1,0.1,0.2,0.2,0.2
				c0.7,0.4,1.8,0.8,2.1,2.8L332.6,78.7z M327.9,61.2c0-3.6-1.2-4-3.6-4h-2.3c0,2.1-0.1,4.8-0.1,8h2.3
				C326.8,65.3,327.9,64.3,327.9,61.2z"/>
			<path class="st0" d="M336.4,69v-5.8c0-4.8-0.1-8.2-0.3-9.8h4.7c-0.2,1.6-0.2,8.4-0.2,9.8V69c0,1.4,0.1,8.1,0.2,9.7h-4.7
				C336.3,77.1,336.4,73.8,336.4,69z"/>
			<path class="st0" d="M354.2,71.5h-5.6c-0.8,4-1.2,6-1.3,7.1H343c0.4-1.5,1.5-5.7,3.1-12.6c1.6-6.9,2.4-11.1,2.6-12.6h5.6
				c0.1,1.5,1.1,5.7,2.6,12.6c1.5,6.9,2.8,11.1,3.2,12.6h-4.5C355.4,77.5,355,75.5,354.2,71.5z M353.4,67.9l-0.1-0.6l-1.7-8.3h-0.5
				l-1.8,8.3c0,0.2-0.1,0.4-0.1,0.6H353.4z"/>
			<path class="st0" d="M374.1,74.7v4h-11.9c0.2-1.5,0.3-5.7,0.3-12.6c0-6.9-0.1-11.1-0.3-12.6h4.7c-0.2,1.5-0.2,5.7-0.2,12.6v8.8
				h2.6C370.8,74.9,372.5,74.8,374.1,74.7z"/>
			<path class="st0" d="M389,74.7v4h-12.5c0.2-1.5,0.3-5.7,0.3-12.6c0-6.9-0.1-11.1-0.3-12.6h12.1v4c-1.6-0.2-3.3-0.2-4.9-0.2h-2.7
				v6.6h1.9c1.6,0,3.3,0,4.9-0.2v4c-1.6-0.2-3.3-0.2-4.9-0.2h-1.9v7.3h3C385.8,74.8,387.4,74.8,389,74.7z"/>
			<path class="st0" d="M398.2,75.7c1.6,0,2.5-1.1,2.5-3.3c0-1.9-1.2-2.6-2.8-3.9l-2.2-1.8c-2.2-1.7-3.7-3.6-3.7-6.7
				c0-4.4,2.4-6.9,6.6-6.9c4,0,6.3,2.4,6.5,5.8l-3.7,1.2c-0.2-1.9-1-3.4-2.8-3.4c-1.6,0-2.4,1.1-2.4,2.8c0,1.4,0.5,2.2,2.9,4.2
				l2.4,1.9c2.1,1.7,3.4,3.4,3.4,6.5c0,4.2-2.3,6.9-6.6,6.9c-4.3,0-6.2-2.1-6.9-5.7l3.6-1.8C395.2,74.4,396.4,75.7,398.2,75.7z"/>
		</g>
	</g>
</g>
</svg>
