<?xml version="1.0" encoding="utf-8"?>
<!-- Generator: Adobe Illustrator 27.6.1, SVG Export Plug-In . SVG Version: 6.00 Build 0)  -->
<svg version="1.1" id="Capa_1" xmlns="http://www.w3.org/2000/svg" xmlns:xlink="http://www.w3.org/1999/xlink" x="0px" y="0px"
	 viewBox="0 0 143.4 94.4" style="enable-background:new 0 0 143.4 94.4;" xml:space="preserve">
<style type="text/css">
	.st0{fill:url(#SVGID_1_);}
	.st1{fill-rule:evenodd;clip-rule:evenodd;fill:#FCCA03;}
	.st2{fill:url(#SVGID_00000100381027415027329840000007372546568393922192_);}
	.st3{fill:url(#SVGID_00000036233665712385373050000013716153850366632635_);}
	.st4{fill:#084A92;}
	.st5{fill:#FCCA03;}
	.st6{fill:#1F448A;}
	.st7{fill-rule:evenodd;clip-rule:evenodd;fill:#1F448A;}
</style>
<g>
	<g>
		<g>
			<g>
				
					<linearGradient id="SVGID_1_" gradientUnits="userSpaceOnUse" x1="1740.5819" y1="-1564.0088" x2="1782.3054" y2="-1508.6399" gradientTransform="matrix(1 0 0 1 -1692 1570.1338)">
					<stop  offset="0" style="stop-color:#A9A6A6"/>
					<stop  offset="0.3125" style="stop-color:#E3E4E4"/>
					<stop  offset="0.4531" style="stop-color:#F8F8F8"/>
					<stop  offset="0.6602" style="stop-color:#E3E4E4"/>
					<stop  offset="1" style="stop-color:#C4C1C2"/>
				</linearGradient>
				<path class="st0" d="M47.5,49.9V18.3h5.5V2.8l13.4,0.3l2.9,2.8L72.2,3h13.5v15.3h5.6v31.6c0,3-0.5,5.8-1.7,8.5
					c-1.1,2.6-2.7,5-4.7,6.9c-2,2-4.4,3.6-7,4.7c-2.8,1.1-5.5,1.7-8.5,1.7c-3,0-5.8-0.7-8.5-1.8c-2.6-1.2-5-2.7-7-4.7
					c-2-1.9-3.6-4.3-4.7-6.9C48.1,55.6,47.5,52.8,47.5,49.9z"/>
				<rect x="60.1" y="59.2" class="st1" width="19" height="8.1"/>
				<rect x="58.6" y="21.2" class="st1" width="20.6" height="11.8"/>
				
					<linearGradient id="SVGID_00000052074554269650275080000016343455383001516466_" gradientUnits="userSpaceOnUse" x1="1751.6737" y1="-1534.3918" x2="1770.4225" y2="-1520.77" gradientTransform="matrix(1 0 0 1 -1692 1570.1338)">
					<stop  offset="0" style="stop-color:#E1121B"/>
					<stop  offset="0.5156" style="stop-color:#F29D77"/>
					<stop  offset="1" style="stop-color:#E1121B"/>
				</linearGradient>
				<path style="fill:url(#SVGID_00000052074554269650275080000016343455383001516466_);" d="M60.7,46.9V34.3h17.4v12.6
					c0,1.2-0.2,2.3-0.7,3.4c-0.4,1-1.1,2-1.9,2.8c-0.8,0.8-1.8,1.4-2.8,1.9c-1.1,0.4-2.2,0.7-3.4,0.7c-1.2,0-2.3-0.3-3.4-0.7
					c-1-0.5-2-1.1-2.8-1.9c-0.8-0.8-1.4-1.7-1.9-2.8C60.9,49.2,60.7,48.1,60.7,46.9z"/>
			</g>
			
				<linearGradient id="SVGID_00000021119651092408334660000001998783035298477982_" gradientUnits="userSpaceOnUse" x1="43.767" y1="14.917" x2="95.2295" y2="53.6968">
				<stop  offset="0" style="stop-color:#11A4DE"/>
				<stop  offset="0.3359" style="stop-color:#084A92"/>
				<stop  offset="0.8477" style="stop-color:#084A92"/>
				<stop  offset="1" style="stop-color:#11A4DE"/>
			</linearGradient>
			<path style="fill:url(#SVGID_00000021119651092408334660000001998783035298477982_);" d="M76.5,26.6l0.6,5.9h0.4l0.7-5.9v-0.8
				h-1.7V26.6z M76.1,24c0.1,0.2,0.1,0.3,0.1,0.3c0.1,0.5,0.6,0.9,1.2,0.9c0.7,0,1.3-0.6,1.3-1.3c0-0.3-0.1-0.6-0.3-0.8
				c0,0.2,0,0.3,0,0.3c-0.2,0.4-0.4,0.3-0.5,0.3l0.1-0.2c0.2-0.4-0.1-0.8-0.2-0.9c-0.4-0.4-0.4-0.6-0.4-1c-0.5,0.5-0.7,1-0.8,1.3
				c-0.1,0.5,0,1,0.5,1.5C76.6,24.4,76.2,24.2,76.1,24z M70.9,24c0.1,0.2,0.1,0.3,0.1,0.3c0.1,0.5,0.6,0.9,1.2,0.9
				c0.7,0,1.3-0.6,1.3-1.3c0-0.3-0.1-0.6-0.3-0.8c0,0.2,0,0.3,0,0.3c-0.2,0.4-0.4,0.3-0.5,0.3l0.1-0.2c0.2-0.4-0.1-0.8-0.2-0.9
				c-0.5-0.4-0.4-0.6-0.4-1c-0.5,0.5-0.7,1-0.8,1.3c-0.1,0.5,0,1,0.5,1.5C71.3,24.4,71,24.2,70.9,24z M71.3,26.6l0.6,5.9h0.4
				l0.7-5.9v-0.8h-1.7V26.6z M66.1,26.6l0.6,5.9h0.4l0.7-5.9v-0.8h-1.7V26.6z M65.7,24c0.1,0.2,0.1,0.3,0.1,0.3
				c0.1,0.5,0.6,0.9,1.2,0.9c0.7,0,1.3-0.6,1.3-1.3c0-0.3-0.1-0.6-0.3-0.8c0,0.2,0,0.3,0,0.3c-0.2,0.4-0.4,0.3-0.5,0.3l0.1-0.2
				c0.2-0.4-0.1-0.8-0.2-0.9c-0.4-0.4-0.4-0.6-0.4-1c-0.5,0.5-0.7,1-0.8,1.3c-0.1,0.5,0,1,0.5,1.5C66.1,24.4,65.8,24.2,65.7,24z
				 M60.5,24c0.1,0.2,0.1,0.3,0.1,0.3c0.1,0.5,0.6,0.9,1.2,0.9c0.7,0,1.3-0.6,1.3-1.3c0-0.3-0.1-0.6-0.3-0.8c0,0.2,0,0.3,0,0.3
				c-0.2,0.4-0.4,0.3-0.5,0.3l0.1-0.2c0.2-0.4-0.1-0.8-0.2-0.9c-0.4-0.4-0.4-0.6-0.4-1c-0.5,0.5-0.7,1-0.8,1.3c-0.1,0.5,0,1,0.5,1.5
				C60.9,24.4,60.6,24.2,60.5,24z M60.9,26.6l0.6,5.9h0.4l0.7-5.9v-0.8h-1.7V26.6z M71.1,3.7c0.8-0.7,1.8-1.1,3-1.1h11.8
				c0.2,0,0.3,0.1,0.4,0.2C86.4,2.9,86.4,3,86.4,3v0.2V18h5l0.3,0.1c0.1,0,0.2,0.1,0.3,0.1c0.2,0.2,0.3,0.5,0.3,0.7v30.8
				c0,3.1-0.6,6.1-1.7,9c-1.3,2.9-2.9,5.3-4.9,7.4c-2.1,2.1-4.5,3.8-7.2,5c-2.7,1.2-5.6,1.8-8.9,1.8c-3.1,0-6-0.6-8.8-1.8
				c-2.8-1.2-5.2-2.9-7.2-5c-2.1-2-3.7-4.5-4.9-7.4c-1.1-3.1-1.7-6.1-1.7-9V18.9c0-0.2,0.1-0.5,0.2-0.7c0.1-0.1,0.3-0.2,0.5-0.2h5.1
				V3.2V3c0-0.1,0.1-0.1,0.1-0.2c0.1-0.1,0.3-0.2,0.4-0.2h11.9c1.1,0,2.2,0.4,3.1,1.1c0.6,0.5,1.1,1,1.4,1.6
				C70,4.8,70.5,4.2,71.1,3.7z M70.4,6.7H69c-0.3-0.9-0.8-1.6-1.4-2.1c-0.7-0.5-1.5-0.8-2.4-0.8H53.9v14.1h11.3
				c0.8,0,1.6,0.1,2.3,0.5c0.4,0.2,0.9,0.5,1.3,0.9c0.4,0.6,0.7,1,0.9,1.3c0.1-0.3,0.4-0.7,0.9-1.3c0.4-0.3,0.8-0.7,1.3-0.9
				c0.7-0.4,1.5-0.5,2.3-0.5h11.2V3.9H74.1c-0.9,0-1.7,0.3-2.3,0.8C71,5.2,70.6,5.9,70.4,6.7z M81.4,32.6c0.3,0.1,0.6,0.1,0.9,0.1
				c0.8,0,1.5-0.2,2.1-0.5c1.4-0.8,2.9-1.2,4.5-1.2c0.7,0,1.4,0.1,2.2,0.3v-12C91.1,19.2,81.3,32.5,81.4,32.6z M79.1,41.7
				c0.3,0.3,0.8,0.7,1.3,1l0.1,0.1c0.4,0.2,0.6,0.2,0.9,0.3c0.2,0,0.6,0.1,0.9,0.1c0.8,0,1.5-0.2,2.1-0.6c1.4-0.8,2.9-1.1,4.5-1.1
				c0.7,0,1.4,0.1,2.2,0.3v-4.9c-0.1-0.1-0.3-0.2-0.4-0.2c-0.5-0.3-1.1-0.4-1.8-0.4c-0.9,0-1.7,0.2-2.2,0.5
				c-1.6,0.8-3.1,1.2-4.5,1.2c-1.3,0-2.5-0.3-3.7-0.9v4.2C78.7,41.3,79.1,41.7,79.1,41.7z M48.2,19.2v12c0.6-0.1,1.3-0.2,2.1-0.2
				c1.7,0,3.2,0.4,4.6,1.2c0.7,0.3,1.3,0.5,2.1,0.5c0.5,0,1.1-0.1,1.7-0.3L48.2,19.2z M48.2,41.5c0.6-0.1,1.3-0.2,2.1-0.2
				c1.7,0,3.2,0.3,4.6,1.1c0.6,0.4,1.3,0.6,2.1,0.6c0.5,0,1.2-0.1,1.8-0.4c0.5-0.3,1-0.6,1.5-1l0.4-0.4V37c-1.1,0.5-2.3,0.8-3.7,0.8
				c-1.5,0-2.9-0.5-4.3-1.2C52,36.3,51.2,36,50.2,36c-0.7,0-1.3,0.1-1.7,0.4l-0.3,0.3C48.2,36.7,48.2,41.5,48.2,41.5z M61.6,47.4
				c0.1,0.7,0.3,1.6,0.7,2.4c0.4,1,0.9,1.9,1.7,2.7c0.4,0.3,0.7,0.6,1.2,0.9c0.1,0.1,0.2,0.1,0.3,0.2c0.3,0.3,0.7,0.5,1.1,0.6
				c0.8,0.3,1.9,0.5,3.1,0.6c1.3-0.1,2.3-0.3,3.1-0.6c0.3-0.1,0.7-0.3,1.1-0.6c0.3-0.2,0.7-0.4,1-0.7c0.1-0.1,0.3-0.3,0.5-0.4
				c0.7-0.7,1.3-1.6,1.7-2.7c0.1-0.1,0.1-0.2,0.1-0.3c0.3-0.6,0.5-1.1,0.5-2V36H61.5v10.5C61.5,46.8,61.6,47.1,61.6,47.4z
				 M61.2,49.9c-0.4-0.9-0.6-1.9-0.7-3c-1.1,0.5-2.3,1.3-3.7,1.3c-1.5,0-2.9-0.4-4.3-1.2c-0.6-0.3-1.3-0.5-2.3-0.5
				c-0.7,0-1.3,0.1-1.7,0.4l-0.3,0.2v2.7c0,0.5,0,1.1,0.1,1.6c0.7-0.1,1.3-0.2,2-0.2c1.7,0,3.1,0.3,4.6,1.2c0.7,0.3,1.4,0.5,2.1,0.5
				c0.7,0,1.3-0.1,1.8-0.3c0.6-0.3,1.1-0.6,1.5-1l0.5-0.7c0.3-0.3,0.4-0.5,0.5-0.8L61.2,49.9z M52.6,56.9c-0.9-0.4-1.7-0.6-2.3-0.6
				c-0.3,0-0.7,0-1,0.1c0.1,0.6,0.4,1.2,0.7,1.8c1.1,2.8,2.7,5.1,4.6,7c0.1,0.1,0.3,0.3,0.5,0.4l6.8-9.1c-0.3,0.2-0.7,0.4-1.1,0.6
				c-1.2,0.5-2.5,0.8-3.8,0.8C55.3,58,53.8,57.6,52.6,56.9z M64.1,65.2l2.3,1.8l-0.9-2.9l2.3-1.8H65l-0.9-2.9l-0.9,2.9h-2.9l2.4,1.8
				L61.7,67L64.1,65.2z M91,51.4c0.1-0.6,0.1-1.2,0.1-1.7v-2.6c-0.2-0.1-0.3-0.2-0.4-0.3c-0.5-0.3-1-0.4-1.8-0.4
				c-0.9,0-1.7,0.1-2.2,0.5c-1.6,0.8-3.1,1.2-4.5,1.2c-1.3,0-2.5-0.3-3.7-0.8c0,1.1-0.2,1.6-0.5,2.6c0.1,0.5,0.5,1,1,1.6h0
				c0.5,0.4,0.9,0.7,1.4,1c0.5,0.2,1.1,0.3,1.8,0.3c0.7,0,1.5-0.2,2.1-0.5c1.5-0.7,3.1-1.2,4.5-1.2C89.6,51.2,90.4,51.2,91,51.4z
				 M86.7,56.9c-1.5,0.7-2.9,1.1-4.5,1.1c-1.3,0-2.5-0.3-3.7-0.8c-0.3-0.2-0.7-0.3-1-0.5l6.8,9.1l0.5-0.5c1.9-2.1,3.5-4.4,4.6-7
				c0.3-0.7,0.5-1.2,0.7-1.8c-0.4-0.1-0.8-0.2-1.2-0.2C88.2,56.3,87.4,56.5,86.7,56.9z M77.3,67l-0.9-2.9l2.3-1.8h-2.9L75,59.4
				l-0.9,2.9h-2.9l2.4,1.8L72.6,67l2.4-1.8L77.3,67z"/>
			<path class="st4" d="M74.7,8.4c-0.7,0.5-1.1,1.2-1.1,2c0,0.8,0.3,1.4,1.1,2c0.4,0.3,0.9,0.5,1.3,0.7v2.8h-3.1v-1h2.7v-0.8
				c-0.6-0.2-1.2-0.5-1.7-0.8c-0.9-0.8-1.4-1.8-1.4-2.9c0-1.1,0.5-2,1.4-2.9c0.9-0.7,2-1.2,3.3-1.2c1.3,0,2.4,0.4,3.3,1.2
				c1,0.8,1.5,1.8,1.5,2.9c0.1,1.1-0.4,2.1-1.5,2.9c-0.4,0.3-0.9,0.6-1.6,0.8v0.8h2.7v1h-3.1V13c0.4-0.1,0.9-0.3,1.5-0.6
				c0.7-0.5,0.9-1.2,0.9-2c0-0.8-0.3-1.4-0.9-2c-0.7-0.5-1.6-0.9-2.7-0.9C76.2,7.6,75.3,7.9,74.7,8.4z"/>
			<path class="st4" d="M66.1,16l-1.7-3.4h-4.8L58,16h-1.2l5.1-10h0.3l5.1,10H66.1z M63.9,11.7L62.1,8l-1.9,3.7H63.9z"/>
			<path class="st5" d="M69,43v-2.7h0.5h0.6V43c0.2,0,0.4,0.1,0.6,0.2l1.3-2.3c0.3,0.1,0.7,0.3,0.9,0.6l-1.3,2.3
				c0.1,0.1,0.1,0.1,0.3,0.2c0.1,0.1,0.1,0.1,0.2,0.3l2.2-1.4c0.2,0.3,0.4,0.7,0.5,1l-2.2,1.3c0.1,0.2,0.1,0.4,0.1,0.6h2.6v1.1h-2.6
				c-0.1,0.2-0.1,0.4-0.1,0.6l2.2,1.4c-0.1,0.3-0.3,0.7-0.5,1l-2.2-1.4c-0.1,0.1-0.1,0.2-0.2,0.3c-0.1,0.1-0.2,0.1-0.3,0.2l1.3,2.3
				c-0.3,0.3-0.6,0.4-0.9,0.6l-1.3-2.3c-0.2,0.1-0.4,0.1-0.6,0.1v2.6l-0.6,0.1L69,52.3v-2.6c-0.2,0-0.4-0.1-0.6-0.1l-1.3,2.3
				c-0.3-0.2-0.7-0.3-0.9-0.6l1.3-2.2c-0.1-0.1-0.1-0.2-0.3-0.3c-0.1-0.1-0.1-0.1-0.1-0.2l-2.3,1.2c-0.2-0.3-0.4-0.6-0.5-1l2.3-1.3
				c-0.1-0.2-0.1-0.4-0.2-0.7h-2.6v-1.1h2.6c0.1-0.2,0.1-0.4,0.1-0.6l-2.2-1.3c0.1-0.3,0.3-0.7,0.5-1l2.2,1.4
				c0.1-0.1,0.1-0.2,0.2-0.3c0.1-0.1,0.2-0.2,0.3-0.3l-1.3-2.2c0.3-0.3,0.6-0.5,0.9-0.6l1.3,2.3C68.6,43,68.8,43,69,43z"/>
		</g>
		<g>
			<path class="st6" d="M8.6,84.2H7L7,89.6c-0.1,0.2-0.2,0.5-0.4,0.6c-0.2,0.2-0.5,0.3-1,0.3c-0.4,0-0.7-0.1-1-0.3
				c-0.2-0.2-0.4-0.4-0.5-0.7c0-0.3-0.1-0.7-0.1-1.3v-4H2.6v4c0,0.9,0.1,1.5,0.2,1.9c0.1,0.3,0.2,0.6,0.4,0.8
				c0.2,0.3,0.5,0.5,0.9,0.6c0.4,0.2,0.9,0.3,1.6,0.3c0.6,0,1-0.1,1.4-0.2C7.5,91.4,7.8,91.2,8,91c0.2-0.3,0.4-0.6,0.4-0.9
				c0.1-0.4,0.1-1,0.1-1.9V84.2z"/>
			<path class="st6" d="M16.1,84.2h-1.4v5l-3-5h-1.5v7.5h1.4v-4.9l3,4.9h1.5V84.2z"/>
			<path class="st6" d="M17.7,84.2v7.5h1.5v-7.5H17.7z"/>
			<path class="st6" d="M25.2,84.2l-1.8,5.5l-1.9-5.5h-1.6l2.7,7.5h1.6l2.7-7.5H25.2z"/>
			<path class="st6" d="M29.1,90.4v-2h3.8v-1.3h-3.8v-1.6h4v-1.3h-5.6v7.5h5.7v-1.3H29.1z"/>
			<path class="st6" d="M40.3,85.1c-0.2-0.3-0.5-0.6-0.9-0.7c-0.4-0.1-0.9-0.2-1.7-0.2h-3.2v7.5H36v-3.1h0.3c0.3,0,0.6,0,0.8,0.1
				c0.2,0,0.3,0.1,0.5,0.3c0.2,0.2,0.4,0.6,0.8,1.1l1.1,1.6h1.8l-0.9-1.5c-0.4-0.6-0.7-1-0.9-1.2c-0.2-0.2-0.4-0.4-0.8-0.6
				c0.6-0.1,1.1-0.3,1.5-0.7c0.3-0.4,0.5-0.8,0.5-1.4C40.7,85.8,40.6,85.5,40.3,85.1z M38.3,85.5c0.2,0,0.4,0.1,0.6,0.3
				c0.1,0.2,0.2,0.4,0.2,0.6c0,0.2,0,0.4-0.1,0.5c-0.1,0.2-0.3,0.3-0.4,0.3c-0.2,0.1-0.6,0.1-1.3,0.1H36v-1.9L38.3,85.5z"/>
			<path class="st6" d="M43.3,84.3c-0.4,0.1-0.7,0.4-0.9,0.7c-0.2,0.3-0.3,0.7-0.3,1.1c0,0.6,0.2,1.1,0.7,1.5
				c0.3,0.3,0.9,0.5,1.7,0.7l1.2,0.3c0.2,0.1,0.4,0.2,0.6,0.3c0.1,0.1,0.1,0.3,0.1,0.5c0,0.3-0.1,0.5-0.4,0.7
				c-0.3,0.2-0.6,0.3-1.1,0.3c-0.4,0-0.8-0.1-1.1-0.4c-0.3-0.2-0.5-0.6-0.5-1.1l-1.5,0.1c0.1,0.8,0.4,1.5,0.9,1.9
				c0.5,0.4,1.2,0.7,2.2,0.7c0.6,0,1.2-0.1,1.6-0.3c0.4-0.2,0.8-0.4,1-0.8c0.3-0.4,0.4-0.8,0.4-1.2c0-0.5-0.1-0.9-0.3-1.2
				c-0.2-0.3-0.5-0.6-0.8-0.8c-0.4-0.2-0.9-0.4-1.6-0.5c-0.7-0.2-1.2-0.3-1.4-0.5c-0.2-0.1-0.2-0.3-0.2-0.5c0-0.2,0.1-0.3,0.2-0.4
				c0.3-0.2,0.6-0.3,1-0.3c0.4,0,0.7,0.1,0.9,0.3c0.2,0.2,0.4,0.4,0.4,0.8l1.5-0.1c0-0.7-0.3-1.2-0.7-1.6c-0.5-0.4-1.2-0.6-2.1-0.6
				C44.2,84,43.7,84.1,43.3,84.3z"/>
			<path class="st6" d="M50.5,84.2H49v7.5h1.5V84.2z"/>
			<path class="st6" d="M57.2,85c-0.3-0.3-0.7-0.6-1.1-0.7c-0.3-0.1-0.8-0.1-1.4-0.1H52v7.5h2.8c0.5,0,1-0.1,1.3-0.2
				c0.4-0.2,0.8-0.4,1-0.6c0.4-0.3,0.6-0.8,0.8-1.3c0.2-0.5,0.2-1,0.2-1.6c0-0.7-0.1-1.3-0.2-1.8C57.8,85.8,57.6,85.3,57.2,85z
				 M54.2,85.5c0.6,0,1,0,1.2,0.1c0.3,0.1,0.5,0.2,0.7,0.3c0.2,0.2,0.3,0.4,0.4,0.7c0.1,0.3,0.2,0.7,0.2,1.3c0,0.6-0.1,1-0.2,1.4
				c-0.1,0.3-0.2,0.6-0.4,0.7c-0.1,0.2-0.3,0.3-0.6,0.3c-0.2,0-0.5,0.1-0.9,0.1h-1.1v-5H54.2z"/>
			<path class="st6" d="M63.3,84.2h-1.6l-2.9,7.5h1.6L61,90h3l0.6,1.7h1.6L63.3,84.2z M63.5,88.7h-2l1-2.8L63.5,88.7z"/>
			<path class="st6" d="M71.2,84.3c-0.3-0.1-0.8-0.1-1.4-0.1h-2.8v7.5h2.8c0.5,0,1-0.1,1.3-0.2c0.4-0.1,0.8-0.3,1.1-0.6
				c0.3-0.3,0.6-0.8,0.8-1.3c0.1-0.4,0.2-1,0.2-1.6c0-0.7-0.1-1.3-0.2-1.8c-0.2-0.5-0.4-0.9-0.7-1.2C72.1,84.7,71.7,84.4,71.2,84.3z
				 M70.5,85.5c0.3,0.1,0.5,0.2,0.7,0.3c0.2,0.2,0.3,0.4,0.4,0.7c0.1,0.3,0.2,0.7,0.2,1.3c0,0.6-0.1,1-0.2,1.4
				c-0.1,0.3-0.2,0.6-0.4,0.7c-0.2,0.2-0.4,0.3-0.6,0.3c-0.2,0-0.5,0.1-0.9,0.1h-1.1v-5h0.7C69.9,85.5,70.3,85.5,70.5,85.5z"/>
			<path class="st6" d="M83.5,86.2c-0.2-0.5-0.4-0.9-0.7-1.2c-0.3-0.3-0.7-0.6-1.1-0.7c-0.3-0.1-0.7-0.1-1.4-0.1h-2.7v7.5h2.8
				c0.5,0,1-0.1,1.3-0.2c0.5-0.1,0.8-0.3,1.1-0.6c0.3-0.3,0.6-0.8,0.8-1.3c0.1-0.5,0.2-1,0.2-1.6C83.8,87.3,83.7,86.7,83.5,86.2z
				 M79.1,85.5h0.7c0.6,0,1,0,1.2,0.1c0.3,0.1,0.5,0.2,0.7,0.3c0.2,0.2,0.3,0.4,0.4,0.7c0.1,0.3,0.1,0.7,0.1,1.3c0,0.6,0,1-0.1,1.4
				c-0.1,0.3-0.3,0.6-0.4,0.7c-0.2,0.2-0.4,0.3-0.6,0.3c-0.2,0-0.5,0.1-0.9,0.1h-1.1V85.5z"/>
			<path class="st6" d="M126.4,84.2h-3v7.5l4.4-0.1c0.4,0,0.7-0.2,1-0.4c0.2-0.2,0.5-0.4,0.6-0.8c0.2-0.3,0.2-0.7,0.2-1
				c0-0.5-0.1-0.8-0.4-1.1c-0.2-0.3-0.6-0.6-1-0.7c0.3-0.2,0.6-0.4,0.8-0.7c0.2-0.3,0.3-0.6,0.3-1c0-0.3-0.1-0.6-0.2-0.9
				c-0.1-0.2-0.3-0.5-0.6-0.6c-0.2-0.1-0.5-0.2-0.8-0.3C127.5,84.2,127,84.2,126.4,84.2z M125.9,87.2h-1v-1.7l2.2,0
				c0.2,0,0.4,0.1,0.5,0.3c0.1,0.1,0.2,0.3,0.2,0.6c0,0.2-0.1,0.4-0.2,0.6c-0.2,0.2-0.4,0.2-0.6,0.3
				C126.8,87.1,126.5,87.2,125.9,87.2z M124.9,88.4h1.2c0.7,0,1.1,0,1.3,0.1c0.2,0.1,0.3,0.2,0.5,0.3c0.1,0.2,0.2,0.4,0.2,0.6
				c0,0.3-0.1,0.5-0.2,0.6c-0.1,0.2-0.3,0.3-0.5,0.3l-2.4,0.1V88.4z"/>
			<path class="st6" d="M115.1,84c-0.6,0-1.2,0.1-1.6,0.3c-0.3,0.1-0.7,0.4-0.9,0.7c-0.3,0.3-0.6,0.7-0.7,1
				c-0.2,0.5-0.4,1.1-0.4,1.9c0,1.2,0.3,2.1,1,2.8c0.7,0.7,1.6,1,2.6,1c1.1,0,2-0.4,2.6-1c0.7-0.7,1-1.6,1-2.8c0-1.2-0.3-2.2-1-2.8
				C117.1,84.4,116.2,84,115.1,84z M115.1,85.4c0.6,0,1.1,0.2,1.5,0.6c0.4,0.4,0.6,1,0.6,1.9c0,0.9-0.2,1.5-0.6,1.9
				c-0.4,0.4-0.9,0.7-1.5,0.7c-0.6,0-1.1-0.2-1.5-0.7c-0.4-0.4-0.6-1.1-0.6-1.9c0-0.9,0.2-1.5,0.6-1.9
				C114,85.6,114.5,85.4,115.1,85.4z"/>
			<path class="st6" d="M119.7,89.7h2.8v-1.4h-2.8V89.7z"/>
			<path class="st6" d="M137.2,84c-0.6,0-1.1,0.1-1.6,0.3c-0.4,0.1-0.7,0.4-1,0.7c-0.3,0.3-0.6,0.7-0.7,1c-0.2,0.5-0.3,1.2-0.3,1.9
				c0,1.2,0.3,2.1,1,2.8c0.7,0.7,1.6,1,2.6,1c1.1,0,2-0.4,2.6-1c0.7-0.7,1-1.6,1-2.8c0-1.2-0.3-2.2-1-2.8
				C139.2,84.4,138.3,84,137.2,84z M135.7,86c0.4-0.4,0.9-0.6,1.5-0.6c0.6,0,1.1,0.2,1.5,0.6c0.4,0.4,0.6,1,0.6,1.9
				c0,0.9-0.2,1.5-0.6,1.9c-0.4,0.4-0.9,0.7-1.5,0.7c-0.6,0-1.1-0.2-1.5-0.7c-0.4-0.4-0.6-1.1-0.6-1.9
				C135.1,87.1,135.3,86.4,135.7,86z"/>
			<path class="st6" d="M132.4,84.2h-1.5v7.5h1.5V84.2z"/>
			<path class="st6" d="M90.6,85.5v-1.3h-5.6v7.5h5.7v-1.3h-4.2v-2h3.8v-1.3h-3.8v-1.6H90.6z"/>
			<path class="st6" d="M97.3,91.7v-1.3h-3.7v-6.2h-1.5v7.4H97.3z"/>
			<path class="st6" d="M110.4,84.2h-1.5v7.5h1.5V84.2z"/>
			<path class="st6" d="M107.2,86.1c0-0.3-0.1-0.6-0.2-0.9c-0.1-0.2-0.3-0.4-0.6-0.6c-0.2-0.1-0.5-0.2-0.8-0.3
				c-0.3,0-0.7-0.1-1.3-0.1h-3v7.5l4.4-0.1c0.4,0,0.8-0.2,1-0.4c0.3-0.2,0.5-0.4,0.7-0.8c0.1-0.3,0.2-0.6,0.2-1
				c0-0.5-0.1-0.8-0.4-1.1c-0.3-0.3-0.6-0.6-1-0.7c0.3-0.2,0.6-0.4,0.8-0.7C107.1,86.7,107.2,86.4,107.2,86.1z M105.6,85.7
				c0.1,0.1,0.2,0.3,0.2,0.6c0,0.2-0.1,0.4-0.2,0.6c-0.2,0.2-0.4,0.2-0.6,0.3l-2.1,0v-1.7l2.1,0C105.3,85.5,105.4,85.6,105.6,85.7z
				 M102.9,88.4h1.2c0.7,0,1.2,0,1.3,0.1c0.2,0.1,0.4,0.2,0.5,0.3c0.1,0.2,0.1,0.4,0.1,0.6c0,0.3-0.1,0.5-0.2,0.6
				c-0.1,0.2-0.3,0.3-0.5,0.3l-2.4,0.1V88.4z"/>
			<polygon class="st7" points="108.6,83.8 109.3,82.3 110.9,82.3 109.5,83.8 			"/>
			<rect x="130.9" y="84.2" class="st6" width="1.5" height="7.5"/>
			<polygon class="st7" points="130.7,83.8 131.4,82.3 132.9,82.3 131.6,83.8 			"/>
		</g>
	</g>
</g>
</svg>
